<?xml version="1.0" encoding="UTF-8"?>
<svg id="Joystick" xmlns="http://www.w3.org/2000/svg" viewBox="0 0 1000 1000">
  <path d="M276.81,303.6h426.95v651.01c0,13.91-11.29,25.2-25.2,25.2h-376.55c-13.91,0-25.2-11.29-25.2-25.2V303.6h0Z" fill="#c6b6ac"/>
  <path d="M304.68,19.78h371.22c15.38,0,27.87,12.49,27.87,27.87v255.94h-426.95V47.65c0-15.38,12.49-27.87,27.87-27.87Z" fill="#d2c1b5"/>
  <rect x="317.46" y="61.4" width="352.91" height="208.54" rx="10.38" ry="10.38" fill="#303030"/>
  <circle cx="493.92" cy="165.67" r="71.57" fill="#1e1e1e"/>
  <path d="M634.02,361.26h-286.75c-13.33,0-24.13,10.8-24.13,24.13v508.43c0,13.33,10.8,24.13,24.13,24.13h76.76c9.62,0,17.42,7.8,17.42,17.42v44.85h97.14v-44.85c0-9.62,7.8-17.42,17.42-17.42h78c13.33,0,24.13-10.8,24.13-24.13v-508.43c0-13.33-10.8-24.13-24.13-24.13Z" fill="#baa9a0"/>
  <rect x="362.92" y="423.5" width="65.26" height="44.42" rx="3.99" ry="3.99" fill="#c64747"/>
  <rect x="549.66" y="423.5" width="65.26" height="44.42" rx="3.99" ry="3.99" fill="#c64747"/>
  <rect x="362.92" y="512.89" width="65.26" height="44.42" rx="3.99" ry="3.99" fill="#303030"/>
  <rect x="453.58" y="512.89" width="65.26" height="44.42" rx="3.99" ry="3.99" fill="#303030"/>
  <rect x="549.66" y="512.89" width="65.26" height="44.42" rx="3.99" ry="3.99" fill="#303030"/>
  <rect x="362.92" y="607.22" width="65.26" height="44.42" rx="3.99" ry="3.99" fill="#303030"/>
  <rect x="456.29" y="607.22" width="65.26" height="44.42" rx="3.99" ry="3.99" fill="#303030"/>
  <rect x="549.66" y="607.22" width="65.26" height="44.42" rx="3.99" ry="3.99" fill="#303030"/>
  <rect x="362.92" y="701.55" width="65.26" height="44.42" rx="3.99" ry="3.99" fill="#303030"/>
  <rect x="456.29" y="701.55" width="65.26" height="44.42" rx="3.99" ry="3.99" fill="#303030"/>
  <rect x="549.66" y="701.55" width="65.26" height="44.42" rx="3.99" ry="3.99" fill="#303030"/>
  <rect x="362.92" y="795.88" width="65.26" height="44.42" rx="3.99" ry="3.99" fill="#303030"/>
  <rect x="456.29" y="795.88" width="65.26" height="44.42" rx="3.99" ry="3.99" fill="#303030"/>
  <rect x="549.66" y="795.88" width="65.26" height="44.42" rx="3.99" ry="3.99" fill="#303030"/>
  <circle cx="493.92" cy="165.67" r="60.37" fill="#0f0f0f"/>
  <circle cx="493.92" cy="165.67" r="21" fill="#333"/>
</svg>