<?xml version="1.0" encoding="UTF-8"?>
<svg id="Layer_1" data-name="Layer 1" xmlns="http://www.w3.org/2000/svg" viewBox="0 0 1000 1000">
  <rect x="269.58" y="12.71" width="453.4" height="974.58" rx="62.36" ry="62.36" fill="#161616"/>
  <path d="M707.06,81.99v791.04c0,32.06-26,58.04-58.05,58.04h-305.92c-13.77,0-26.42-4.8-36.37-12.82-13.22-10.63-21.67-26.93-21.67-45.22V81.99c0-32.06,25.98-58.04,58.04-58.04h305.92c14.74,0,28.2,5.5,38.44,14.55,12.03,10.63,19.61,26.17,19.61,43.49Z" fill="#353535"/>
  <polygon points="359.27 890.27 375.22 880.88 375.12 900.09 359.27 890.27" fill="#c1c1c1"/>
  <circle cx="493.53" cy="890.49" r="9.6" fill="#c1c1c1"/>
  <rect x="610.22" y="880.88" width="19.21" height="19.21" rx="1.22" ry="1.22" fill="#c1c1c1"/>
  <path d="M687.45,38.51l-380.73,879.75c-13.22-10.63-21.67-26.93-21.67-45.22V81.99c0-32.06,25.98-58.04,58.04-58.04h305.92c14.74,0,28.2,5.5,38.44,14.55Z" fill="#494949"/>
  <circle cx="501.31" cy="38.41" r="14.46" fill="#161616"/>
  <path d="M486.85,38.41c-1.15-11.35-9.26-14.17-19.43-14.46h33.89v14.46h-14.46Z" fill="#161616"/>
  <path d="M515.77,38.41c1.15-11.35,9.26-14.17,19.43-14.46h-33.89s0,14.46,0,14.46h14.46Z" fill="#161616"/>
  <circle cx="501.57" cy="38.88" r="7.29" fill="#a0a0a0"/>
  <rect x="712.06" y="252.79" width="18.36" height="155.73" rx="6.18" ry="6.18" fill="#161616"/>
  <rect x="712.06" y="442.68" width="18.36" height="76.33" rx="4.33" ry="4.33" fill="#161616"/>
</svg>