<?xml version="1.0" encoding="UTF-8"?>
<svg id="Layer_1" data-name="Layer 1" xmlns="http://www.w3.org/2000/svg" viewBox="0 0 1000 1000">
  <polygon points="877.61 74.5 116.06 74.5 72.75 483.23 928.3 483.23 877.61 74.5" fill="#8e5749"/>
  <polygon points="928.3 483.23 72.75 483.23 45.65 843.44 954.13 843.44 928.3 483.23" fill="#9b5d4c"/>
  <polygon points="956.2 865.07 44.25 865.07 45.65 843.44 954.13 843.44 956.2 865.07" fill="#ad6a55"/>
  <polygon points="943.47 919.49 53.43 919.49 44.57 865.07 955.56 865.07 943.47 919.49" fill="#825045"/>
  <polygon points="50.34 935.98 20.82 935.98 12.92 885.26 43.01 886.19 50.34 935.98" fill="#825045"/>
  <polygon points="946.35 935.98 975.87 935.98 986.81 880.49 956.73 881.42 946.35 935.98" fill="#825045"/>
  <path d="M72.75,483.23h-30.06L85.94,78.27c.87-8.14,7.76-14.29,15.94-14.25l10.89.06c2.36.01,4.19,2.06,3.94,4.4l-43.96,414.75Z" fill="#825045"/>
  <path d="M928.32,483.23l30.06-.54-50.48-404.12c-1.01-8.12-8.01-14.15-16.19-13.96l-10.88.25c-2.36.05-4.15,2.13-3.86,4.47l51.36,413.9Z" fill="#825045"/>
  <polygon points="986.81 880.49 956.73 881.42 928.3 483.23 958.38 482.69 986.81 880.49" fill="#ad6a55"/>
  <polygon points="12.92 885.26 43.01 886.19 72.75 483.23 42.69 483.23 12.92 885.26" fill="#ad6a55"/>
  <polygon points="43.01 886.19 44.57 865.07 53.43 919.49 50.34 935.98 43.01 886.19" fill="#6d433c"/>
  <polygon points="955.56 865.07 956.73 881.42 946.35 935.98 943.47 919.49 955.56 865.07" fill="#6d433c"/>
  <rect x="209.26" y="567.8" width="573.81" height="42.54" fill="#443532"/>
  <rect x="189.96" y="610.25" width="616.9" height="42.54" fill="#443532"/>
  <rect x="202.78" y="652.7" width="616.75" height="42.54" fill="#443532"/>
  <rect x="227.81" y="695.15" width="528.7" height="42.54" fill="#443532"/>
  <rect x="258.88" y="737.6" width="453.44" height="44.31" fill="#443532"/>
  <rect x="212.96" y="567.8" width="40.74" height="40.74" rx="1.4" ry="1.4" fill="#838a91"/>
  <path d="M245.96,598.18c-8.42,1.35-16.84,1.35-25.26,0-1.31,0-2.38-1.06-2.38-2.38v-25.26c0-1.31,1.06-2.38,2.38-2.38h25.26c1.31,0,2.38,1.06,2.38,2.38v25.26c0,1.31-1.06,2.38-2.38,2.38Z" fill="#b9c1d1"/>
  <rect x="519.77" y="567.8" width="40.74" height="40.74" rx="1.4" ry="1.4" fill="#838a91"/>
  <path d="M552.77,598.18c-8.42,1.35-16.84,1.35-25.26,0-1.31,0-2.38-1.06-2.38-2.38v-25.26c0-1.31,1.06-2.38,2.38-2.38h25.26c1.31,0,2.38,1.06,2.38,2.38v25.26c0,1.31-1.06,2.38-2.38,2.38Z" fill="#b9c1d1"/>
  <rect x="475.94" y="567.8" width="40.74" height="40.74" rx="1.4" ry="1.4" fill="#838a91"/>
  <path d="M508.94,598.18c-8.42,1.35-16.84,1.35-25.26,0-1.31,0-2.38-1.06-2.38-2.38v-25.26c0-1.31,1.06-2.38,2.38-2.38h25.26c1.31,0,2.38,1.06,2.38,2.38v25.26c0,1.31-1.06,2.38-2.38,2.38Z" fill="#b9c1d1"/>
  <rect x="432.11" y="567.8" width="40.74" height="40.74" rx="1.4" ry="1.4" fill="#838a91"/>
  <path d="M465.11,598.18c-8.42,1.35-16.84,1.35-25.26,0-1.31,0-2.38-1.06-2.38-2.38v-25.26c0-1.31,1.06-2.38,2.38-2.38h25.26c1.31,0,2.38,1.06,2.38,2.38v25.26c0,1.31-1.06,2.38-2.38,2.38Z" fill="#b9c1d1"/>
  <rect x="388.28" y="567.8" width="40.74" height="40.74" rx="1.4" ry="1.4" fill="#838a91"/>
  <path d="M421.28,598.18c-8.42,1.35-16.84,1.35-25.26,0-1.31,0-2.38-1.06-2.38-2.38v-25.26c0-1.31,1.06-2.38,2.38-2.38h25.26c1.31,0,2.38,1.06,2.38,2.38v25.26c0,1.31-1.06,2.38-2.38,2.38Z" fill="#b9c1d1"/>
  <rect x="344.45" y="567.8" width="40.74" height="40.74" rx="1.4" ry="1.4" fill="#838a91"/>
  <path d="M377.45,598.18c-8.42,1.35-16.84,1.35-25.26,0-1.31,0-2.38-1.06-2.38-2.38v-25.26c0-1.31,1.06-2.38,2.38-2.38h25.26c1.31,0,2.38,1.06,2.38,2.38v25.26c0,1.31-1.06,2.38-2.38,2.38Z" fill="#b9c1d1"/>
  <rect x="300.62" y="567.8" width="40.74" height="40.74" rx="1.4" ry="1.4" fill="#838a91"/>
  <path d="M333.62,598.18c-8.42,1.35-16.84,1.35-25.26,0-1.31,0-2.38-1.06-2.38-2.38v-25.26c0-1.31,1.06-2.38,2.38-2.38h25.26c1.31,0,2.38,1.06,2.38,2.38v25.26c0,1.31-1.06,2.38-2.38,2.38Z" fill="#b9c1d1"/>
  <rect x="256.79" y="567.8" width="40.74" height="40.74" rx="1.4" ry="1.4" fill="#838a91"/>
  <path d="M289.79,598.18c-8.42,1.35-16.84,1.35-25.26,0-1.31,0-2.38-1.06-2.38-2.38v-25.26c0-1.31,1.06-2.38,2.38-2.38h25.26c1.31,0,2.38,1.06,2.38,2.38v25.26c0,1.31-1.06,2.38-2.38,2.38Z" fill="#b9c1d1"/>
  <rect x="695.09" y="567.8" width="40.74" height="40.74" rx="1.4" ry="1.4" fill="#838a91"/>
  <path d="M728.09,598.18c-8.42,1.35-16.84,1.35-25.26,0-1.31,0-2.38-1.06-2.38-2.38v-25.26c0-1.31,1.06-2.38,2.38-2.38h25.26c1.31,0,2.38,1.06,2.38,2.38v25.26c0,1.31-1.06,2.38-2.38,2.38Z" fill="#b9c1d1"/>
  <rect x="651.26" y="567.8" width="40.74" height="40.74" rx="1.4" ry="1.4" fill="#838a91"/>
  <path d="M684.26,598.18c-8.42,1.35-16.84,1.35-25.26,0-1.31,0-2.38-1.06-2.38-2.38v-25.26c0-1.31,1.06-2.38,2.38-2.38h25.26c1.31,0,2.38,1.06,2.38,2.38v25.26c0,1.31-1.06,2.38-2.38,2.38Z" fill="#b9c1d1"/>
  <rect x="738.6" y="567.8" width="40.74" height="40.74" rx="1.4" ry="1.4" fill="#838a91"/>
  <path d="M771.6,598.18c-8.42,1.35-16.84,1.35-25.26,0-1.31,0-2.38-1.06-2.38-2.38v-25.26c0-1.31,1.06-2.38,2.38-2.38h25.26c1.31,0,2.38,1.06,2.38,2.38v25.26c0,1.31-1.06,2.38-2.38,2.38Z" fill="#b9c1d1"/>
  <rect x="607.43" y="567.8" width="40.74" height="40.74" rx="1.4" ry="1.4" fill="#838a91"/>
  <path d="M640.43,598.18c-8.42,1.35-16.84,1.35-25.26,0-1.31,0-2.38-1.06-2.38-2.38v-25.26c0-1.31,1.06-2.38,2.38-2.38h25.26c1.31,0,2.38,1.06,2.38,2.38v25.26c0,1.31-1.06,2.38-2.38,2.38Z" fill="#b9c1d1"/>
  <rect x="563.6" y="567.8" width="40.74" height="40.74" rx="1.4" ry="1.4" fill="#838a91"/>
  <path d="M596.6,598.18c-8.42,1.35-16.84,1.35-25.26,0-1.31,0-2.38-1.06-2.38-2.38v-25.26c0-1.31,1.06-2.38,2.38-2.38h25.26c1.31,0,2.38,1.06,2.38,2.38v25.26c0,1.31-1.06,2.38-2.38,2.38Z" fill="#b9c1d1"/>
  <rect x="193.61" y="610.35" width="40.74" height="40.74" rx="1.4" ry="1.4" fill="#838a91"/>
  <path d="M226.61,640.73c-8.42,1.35-16.84,1.35-25.26,0-1.31,0-2.38-1.06-2.38-2.38v-25.26c0-1.31,1.06-2.38,2.38-2.38h25.26c1.31,0,2.38,1.06,2.38,2.38v25.26c0,1.31-1.06,2.38-2.38,2.38Z" fill="#b9c1d1"/>
  <rect x="500.42" y="610.35" width="40.74" height="40.74" rx="1.4" ry="1.4" fill="#838a91"/>
  <path d="M533.42,640.73c-8.42,1.35-16.84,1.35-25.26,0-1.31,0-2.38-1.06-2.38-2.38v-25.26c0-1.31,1.06-2.38,2.38-2.38h25.26c1.31,0,2.38,1.06,2.38,2.38v25.26c0,1.31-1.06,2.38-2.38,2.38Z" fill="#b9c1d1"/>
  <rect x="456.59" y="610.35" width="40.74" height="40.74" rx="1.4" ry="1.4" fill="#838a91"/>
  <path d="M489.59,640.73c-8.42,1.35-16.84,1.35-25.26,0-1.31,0-2.38-1.06-2.38-2.38v-25.26c0-1.31,1.06-2.38,2.38-2.38h25.26c1.31,0,2.38,1.06,2.38,2.38v25.26c0,1.31-1.06,2.38-2.38,2.38Z" fill="#b9c1d1"/>
  <rect x="412.76" y="610.35" width="40.74" height="40.74" rx="1.4" ry="1.4" fill="#838a91"/>
  <path d="M445.76,640.73c-8.42,1.35-16.84,1.35-25.26,0-1.31,0-2.38-1.06-2.38-2.38v-25.26c0-1.31,1.06-2.38,2.38-2.38h25.26c1.31,0,2.38,1.06,2.38,2.38v25.26c0,1.31-1.06,2.38-2.38,2.38Z" fill="#b9c1d1"/>
  <rect x="368.93" y="610.35" width="40.74" height="40.74" rx="1.4" ry="1.4" fill="#838a91"/>
  <path d="M401.93,640.73c-8.42,1.35-16.84,1.35-25.26,0-1.31,0-2.38-1.06-2.38-2.38v-25.26c0-1.31,1.06-2.38,2.38-2.38h25.26c1.31,0,2.38,1.06,2.38,2.38v25.26c0,1.31-1.06,2.38-2.38,2.38Z" fill="#b9c1d1"/>
  <rect x="325.1" y="610.35" width="40.74" height="40.74" rx="1.4" ry="1.4" fill="#838a91"/>
  <path d="M358.1,640.73c-8.42,1.35-16.84,1.35-25.26,0-1.31,0-2.38-1.06-2.38-2.38v-25.26c0-1.31,1.06-2.38,2.38-2.38h25.26c1.31,0,2.38,1.06,2.38,2.38v25.26c0,1.31-1.06,2.38-2.38,2.38Z" fill="#b9c1d1"/>
  <rect x="281.27" y="610.35" width="40.74" height="40.74" rx="1.4" ry="1.4" fill="#838a91"/>
  <path d="M314.27,640.73c-8.42,1.35-16.84,1.35-25.26,0-1.31,0-2.38-1.06-2.38-2.38v-25.26c0-1.31,1.06-2.38,2.38-2.38h25.26c1.31,0,2.38,1.06,2.38,2.38v25.26c0,1.31-1.06,2.38-2.38,2.38Z" fill="#b9c1d1"/>
  <rect x="237.44" y="610.35" width="40.74" height="40.74" rx="1.4" ry="1.4" fill="#838a91"/>
  <path d="M270.44,640.73c-8.42,1.35-16.84,1.35-25.26,0-1.31,0-2.38-1.06-2.38-2.38v-25.26c0-1.31,1.06-2.38,2.38-2.38h25.26c1.31,0,2.38,1.06,2.38,2.38v25.26c0,1.31-1.06,2.38-2.38,2.38Z" fill="#b9c1d1"/>
  <rect x="675.74" y="610.35" width="40.74" height="40.74" rx="1.4" ry="1.4" fill="#838a91"/>
  <path d="M708.74,640.73c-8.42,1.35-16.84,1.35-25.26,0-1.31,0-2.38-1.06-2.38-2.38v-25.26c0-1.31,1.06-2.38,2.38-2.38h25.26c1.31,0,2.38,1.06,2.38,2.38v25.26c0,1.31-1.06,2.38-2.38,2.38Z" fill="#b9c1d1"/>
  <rect x="631.91" y="610.35" width="40.74" height="40.74" rx="1.4" ry="1.4" fill="#838a91"/>
  <path d="M664.91,640.73c-8.42,1.35-16.84,1.35-25.26,0-1.31,0-2.38-1.06-2.38-2.38v-25.26c0-1.31,1.06-2.38,2.38-2.38h25.26c1.31,0,2.38,1.06,2.38,2.38v25.26c0,1.31-1.06,2.38-2.38,2.38Z" fill="#b9c1d1"/>
  <rect x="719.25" y="610.35" width="40.74" height="40.74" rx="1.4" ry="1.4" fill="#838a91"/>
  <path d="M752.25,640.73c-8.42,1.35-16.84,1.35-25.26,0-1.31,0-2.38-1.06-2.38-2.38v-25.26c0-1.31,1.06-2.38,2.38-2.38h25.26c1.31,0,2.38,1.06,2.38,2.38v25.26c0,1.31-1.06,2.38-2.38,2.38Z" fill="#b9c1d1"/>
  <rect x="762.71" y="610.35" width="40.74" height="40.74" rx="1.4" ry="1.4" fill="#838a91"/>
  <path d="M795.71,640.73c-8.42,1.35-16.84,1.35-25.26,0-1.31,0-2.38-1.06-2.38-2.38v-25.26c0-1.31,1.06-2.38,2.38-2.38h25.26c1.31,0,2.38,1.06,2.38,2.38v25.26c0,1.31-1.06,2.38-2.38,2.38Z" fill="#b9c1d1"/>
  <rect x="588.08" y="610.35" width="40.74" height="40.74" rx="1.4" ry="1.4" fill="#838a91"/>
  <path d="M621.08,640.73c-8.42,1.35-16.84,1.35-25.26,0-1.31,0-2.38-1.06-2.38-2.38v-25.26c0-1.31,1.06-2.38,2.38-2.38h25.26c1.31,0,2.38,1.06,2.38,2.38v25.26c0,1.31-1.06,2.38-2.38,2.38Z" fill="#b9c1d1"/>
  <rect x="544.25" y="610.35" width="40.74" height="40.74" rx="1.4" ry="1.4" fill="#838a91"/>
  <path d="M577.25,640.73c-8.42,1.35-16.84,1.35-25.26,0-1.31,0-2.38-1.06-2.38-2.38v-25.26c0-1.31,1.06-2.38,2.38-2.38h25.26c1.31,0,2.38,1.06,2.38,2.38v25.26c0,1.31-1.06,2.38-2.38,2.38Z" fill="#b9c1d1"/>
  <rect x="206.4" y="652.89" width="40.74" height="40.74" rx="1.4" ry="1.4" fill="#838a91"/>
  <path d="M239.39,683.27c-8.42,1.35-16.84,1.35-25.26,0-1.31,0-2.38-1.06-2.38-2.38v-25.26c0-1.31,1.06-2.38,2.38-2.38h25.26c1.31,0,2.38,1.06,2.38,2.38v25.26c0,1.31-1.06,2.38-2.38,2.38Z" fill="#b9c1d1"/>
  <rect x="513.21" y="652.89" width="40.74" height="40.74" rx="1.4" ry="1.4" fill="#838a91"/>
  <path d="M546.2,683.27c-8.42,1.35-16.84,1.35-25.26,0-1.31,0-2.38-1.06-2.38-2.38v-25.26c0-1.31,1.06-2.38,2.38-2.38h25.26c1.31,0,2.38,1.06,2.38,2.38v25.26c0,1.31-1.06,2.38-2.38,2.38Z" fill="#b9c1d1"/>
  <rect x="469.38" y="652.89" width="40.74" height="40.74" rx="1.4" ry="1.4" fill="#838a91"/>
  <path d="M502.37,683.27c-8.42,1.35-16.84,1.35-25.26,0-1.31,0-2.38-1.06-2.38-2.38v-25.26c0-1.31,1.06-2.38,2.38-2.38h25.26c1.31,0,2.38,1.06,2.38,2.38v25.26c0,1.31-1.06,2.38-2.38,2.38Z" fill="#b9c1d1"/>
  <rect x="425.55" y="652.89" width="40.74" height="40.74" rx="1.4" ry="1.4" fill="#838a91"/>
  <path d="M458.54,683.27c-8.42,1.35-16.84,1.35-25.26,0-1.31,0-2.38-1.06-2.38-2.38v-25.26c0-1.31,1.06-2.38,2.38-2.38h25.26c1.31,0,2.38,1.06,2.38,2.38v25.26c0,1.31-1.06,2.38-2.38,2.38Z" fill="#b9c1d1"/>
  <rect x="381.72" y="652.89" width="40.74" height="40.74" rx="1.4" ry="1.4" fill="#838a91"/>
  <path d="M414.71,683.27c-8.42,1.35-16.84,1.35-25.26,0-1.31,0-2.38-1.06-2.38-2.38v-25.26c0-1.31,1.06-2.38,2.38-2.38h25.26c1.31,0,2.38,1.06,2.38,2.38v25.26c0,1.31-1.06,2.38-2.38,2.38Z" fill="#b9c1d1"/>
  <rect x="337.89" y="652.89" width="40.74" height="40.74" rx="1.4" ry="1.4" fill="#838a91"/>
  <path d="M370.88,683.27c-8.42,1.35-16.84,1.35-25.26,0-1.31,0-2.38-1.06-2.38-2.38v-25.26c0-1.31,1.06-2.38,2.38-2.38h25.26c1.31,0,2.38,1.06,2.38,2.38v25.26c0,1.31-1.06,2.38-2.38,2.38Z" fill="#b9c1d1"/>
  <rect x="294.06" y="652.89" width="40.74" height="40.74" rx="1.4" ry="1.4" fill="#838a91"/>
  <path d="M327.05,683.27c-8.42,1.35-16.84,1.35-25.26,0-1.31,0-2.38-1.06-2.38-2.38v-25.26c0-1.31,1.06-2.38,2.38-2.38h25.26c1.31,0,2.38,1.06,2.38,2.38v25.26c0,1.31-1.06,2.38-2.38,2.38Z" fill="#b9c1d1"/>
  <rect x="250.23" y="652.89" width="40.74" height="40.74" rx="1.4" ry="1.4" fill="#838a91"/>
  <path d="M283.22,683.27c-8.42,1.35-16.84,1.35-25.26,0-1.31,0-2.38-1.06-2.38-2.38v-25.26c0-1.31,1.06-2.38,2.38-2.38h25.26c1.31,0,2.38,1.06,2.38,2.38v25.26c0,1.31-1.06,2.38-2.38,2.38Z" fill="#b9c1d1"/>
  <rect x="688.52" y="652.89" width="40.74" height="40.74" rx="1.4" ry="1.4" fill="#838a91"/>
  <path d="M721.52,683.27c-8.42,1.35-16.84,1.35-25.26,0-1.31,0-2.38-1.06-2.38-2.38v-25.26c0-1.31,1.06-2.38,2.38-2.38h25.26c1.31,0,2.38,1.06,2.38,2.38v25.26c0,1.31-1.06,2.38-2.38,2.38Z" fill="#b9c1d1"/>
  <rect x="644.69" y="652.89" width="40.74" height="40.74" rx="1.4" ry="1.4" fill="#838a91"/>
  <path d="M677.69,683.27c-8.42,1.35-16.84,1.35-25.26,0-1.31,0-2.38-1.06-2.38-2.38v-25.26c0-1.31,1.06-2.38,2.38-2.38h25.26c1.31,0,2.38,1.06,2.38,2.38v25.26c0,1.31-1.06,2.38-2.38,2.38Z" fill="#b9c1d1"/>
  <rect x="732.03" y="652.89" width="40.74" height="40.74" rx="1.4" ry="1.4" fill="#838a91"/>
  <path d="M765.03,683.27c-8.42,1.35-16.84,1.35-25.26,0-1.31,0-2.38-1.06-2.38-2.38v-25.26c0-1.31,1.06-2.38,2.38-2.38h25.26c1.31,0,2.38,1.06,2.38,2.38v25.26c0,1.31-1.06,2.38-2.38,2.38Z" fill="#b9c1d1"/>
  <rect x="775.49" y="652.89" width="40.74" height="40.74" rx="1.4" ry="1.4" fill="#838a91"/>
  <path d="M808.49,683.27c-8.42,1.35-16.84,1.35-25.26,0-1.31,0-2.38-1.06-2.38-2.38v-25.26c0-1.31,1.06-2.38,2.38-2.38h25.26c1.31,0,2.38,1.06,2.38,2.38v25.26c0,1.31-1.06,2.38-2.38,2.38Z" fill="#b9c1d1"/>
  <rect x="600.86" y="652.89" width="40.74" height="40.74" rx="1.4" ry="1.4" fill="#838a91"/>
  <path d="M633.86,683.27c-8.42,1.35-16.84,1.35-25.26,0-1.31,0-2.38-1.06-2.38-2.38v-25.26c0-1.31,1.06-2.38,2.38-2.38h25.26c1.31,0,2.38,1.06,2.38,2.38v25.26c0,1.31-1.06,2.38-2.38,2.38Z" fill="#b9c1d1"/>
  <rect x="557.04" y="652.89" width="40.74" height="40.74" rx="1.4" ry="1.4" fill="#838a91"/>
  <path d="M590.03,683.27c-8.42,1.35-16.84,1.35-25.26,0-1.31,0-2.38-1.06-2.38-2.38v-25.26c0-1.31,1.06-2.38,2.38-2.38h25.26c1.31,0,2.38,1.06,2.38,2.38v25.26c0,1.31-1.06,2.38-2.38,2.38Z" fill="#b9c1d1"/>
  <rect x="450.03" y="695.44" width="40.74" height="40.74" rx="1.4" ry="1.4" fill="#838a91"/>
  <path d="M483.03,725.82c-8.42,1.35-16.84,1.35-25.26,0-1.31,0-2.38-1.06-2.38-2.38v-25.26c0-1.31,1.06-2.38,2.38-2.38h25.26c1.31,0,2.38,1.06,2.38,2.38v25.26c0,1.31-1.06,2.38-2.38,2.38Z" fill="#b9c1d1"/>
  <rect x="406.2" y="695.44" width="40.74" height="40.74" rx="1.4" ry="1.4" fill="#838a91"/>
  <path d="M439.2,725.82c-8.42,1.35-16.84,1.35-25.26,0-1.31,0-2.38-1.06-2.38-2.38v-25.26c0-1.31,1.06-2.38,2.38-2.38h25.26c1.31,0,2.38,1.06,2.38,2.38v25.26c0,1.31-1.06,2.38-2.38,2.38Z" fill="#b9c1d1"/>
  <rect x="362.37" y="695.44" width="40.74" height="40.74" rx="1.4" ry="1.4" fill="#838a91"/>
  <path d="M395.37,725.82c-8.42,1.35-16.84,1.35-25.26,0-1.31,0-2.38-1.06-2.38-2.38v-25.26c0-1.31,1.06-2.38,2.38-2.38h25.26c1.31,0,2.38,1.06,2.38,2.38v25.26c0,1.31-1.06,2.38-2.38,2.38Z" fill="#b9c1d1"/>
  <rect x="318.54" y="695.44" width="40.74" height="40.74" rx="1.4" ry="1.4" fill="#838a91"/>
  <path d="M351.54,725.82c-8.42,1.35-16.84,1.35-25.26,0-1.31,0-2.38-1.06-2.38-2.38v-25.26c0-1.31,1.06-2.38,2.38-2.38h25.26c1.31,0,2.38,1.06,2.38,2.38v25.26c0,1.31-1.06,2.38-2.38,2.38Z" fill="#b9c1d1"/>
  <rect x="274.71" y="695.44" width="40.74" height="40.74" rx="1.4" ry="1.4" fill="#838a91"/>
  <path d="M307.71,725.82c-8.42,1.35-16.84,1.35-25.26,0-1.31,0-2.38-1.06-2.38-2.38v-25.26c0-1.31,1.06-2.38,2.38-2.38h25.26c1.31,0,2.38,1.06,2.38,2.38v25.26c0,1.31-1.06,2.38-2.38,2.38Z" fill="#b9c1d1"/>
  <rect x="230.88" y="695.44" width="40.74" height="40.74" rx="1.4" ry="1.4" fill="#838a91"/>
  <path d="M263.88,725.82c-8.42,1.35-16.84,1.35-25.26,0-1.31,0-2.38-1.06-2.38-2.38v-25.26c0-1.31,1.06-2.38,2.38-2.38h25.26c1.31,0,2.38,1.06,2.38,2.38v25.26c0,1.31-1.06,2.38-2.38,2.38Z" fill="#b9c1d1"/>
  <rect x="261.94" y="738.97" width="40.74" height="40.74" rx="1.4" ry="1.4" fill="#838a91"/>
  <rect x="305.98" y="738.97" width="359.08" height="40.74" rx="1.51" ry="1.51" fill="#838a91"/>
  <path d="M655.81,769.33c-109.84,1.26-223.38.98-340.52,0-1.48,0-2.69-1.2-2.69-2.69v-21.77c0-1.48,1.2-2.69,2.69-2.69h340.52c1.48,0,2.69,1.2,2.69,2.69v21.77c0,1.48-1.2,2.69-2.69,2.69Z" fill="#b9c1d1"/>
  <path d="M294.94,769.35c-8.42,1.35-16.84,1.35-25.26,0-1.31,0-2.38-1.06-2.38-2.38v-25.26c0-1.31,1.06-2.38,2.38-2.38h25.26c1.31,0,2.38,1.06,2.38,2.38v25.26c0,1.31-1.06,2.38-2.38,2.38Z" fill="#b9c1d1"/>
  <rect x="668.16" y="738.97" width="40.74" height="40.74" rx="1.4" ry="1.4" fill="#ba4c43"/>
  <path d="M701.15,769.35c-8.42,1.35-16.84,1.35-25.26,0-1.31,0-2.38-1.06-2.38-2.38v-25.26c0-1.31,1.06-2.38,2.38-2.38h25.26c1.31,0,2.38,1.06,2.38,2.38v25.26c0,1.31-1.06,2.38-2.38,2.38Z" fill="#f16156"/>
  <rect x="625.35" y="695.44" width="40.74" height="40.74" rx="1.4" ry="1.4" fill="#838a91"/>
  <path d="M658.35,725.82c-8.42,1.35-16.84,1.35-25.26,0-1.31,0-2.38-1.06-2.38-2.38v-25.26c0-1.31,1.06-2.38,2.38-2.38h25.26c1.31,0,2.38,1.06,2.38,2.38v25.26c0,1.31-1.06,2.38-2.38,2.38Z" fill="#b9c1d1"/>
  <rect x="581.52" y="695.44" width="40.74" height="40.74" rx="1.4" ry="1.4" fill="#838a91"/>
  <path d="M614.52,725.82c-8.42,1.35-16.84,1.35-25.26,0-1.31,0-2.38-1.06-2.38-2.38v-25.26c0-1.31,1.06-2.38,2.38-2.38h25.26c1.31,0,2.38,1.06,2.38,2.38v25.26c0,1.31-1.06,2.38-2.38,2.38Z" fill="#b9c1d1"/>
  <rect x="668.86" y="695.44" width="40.74" height="40.74" rx="1.4" ry="1.4" fill="#838a91"/>
  <path d="M701.86,725.82c-8.42,1.35-16.84,1.35-25.26,0-1.31,0-2.38-1.06-2.38-2.38v-25.26c0-1.31,1.06-2.38,2.38-2.38h25.26c1.31,0,2.38,1.06,2.38,2.38v25.26c0,1.31-1.06,2.38-2.38,2.38Z" fill="#b9c1d1"/>
  <rect x="712.32" y="695.44" width="40.74" height="40.74" rx="1.4" ry="1.4" fill="#838a91"/>
  <path d="M745.31,725.82c-8.42,1.35-16.84,1.35-25.26,0-1.31,0-2.38-1.06-2.38-2.38v-25.26c0-1.31,1.06-2.38,2.38-2.38h25.26c1.31,0,2.38,1.06,2.38,2.38v25.26c0,1.31-1.06,2.38-2.38,2.38Z" fill="#b9c1d1"/>
  <rect x="537.69" y="695.44" width="40.74" height="40.74" rx="1.4" ry="1.4" fill="#838a91"/>
  <path d="M570.69,725.82c-8.42,1.35-16.84,1.35-25.26,0-1.31,0-2.38-1.06-2.38-2.38v-25.26c0-1.31,1.06-2.38,2.38-2.38h25.26c1.31,0,2.38,1.06,2.38,2.38v25.26c0,1.31-1.06,2.38-2.38,2.38Z" fill="#b9c1d1"/>
  <rect x="493.86" y="695.44" width="40.74" height="40.74" rx="1.4" ry="1.4" fill="#838a91"/>
  <path d="M526.86,725.82c-8.42,1.35-16.84,1.35-25.26,0-1.31,0-2.38-1.06-2.38-2.38v-25.26c0-1.31,1.06-2.38,2.38-2.38h25.26c1.31,0,2.38,1.06,2.38,2.38v25.26c0,1.31-1.06,2.38-2.38,2.38Z" fill="#b9c1d1"/>
</svg>