<?xml version="1.0" encoding="UTF-8"?>
<svg id="Layer_1" data-name="Layer 1" xmlns="http://www.w3.org/2000/svg" viewBox="0 0 1000 1000">
  <path d="M43.13,532.36h913.75v412.4c0,18.94-15.38,34.32-34.32,34.32H77.45c-18.94,0-34.32-15.38-34.32-34.32v-412.4h0Z" fill="#f4f4f5"/>
  <path d="M77.29,28.92h845.42c18.85,0,34.16,15.31,34.16,34.16v408.32H43.13V63.08c0-18.85,15.31-34.16,34.16-34.16Z" fill="#f4f4f5"/>
  <rect x="151.4" y="415.4" width="696.71" height="62.58" fill="#f4f4f5"/>
  <g>
    <path d="M268.28,76.11h464.7c3.16,0,5.73,2.57,5.73,5.73v356.02c0,3.16-2.57,5.73-5.73,5.73h-464.7c-3.16,0-5.73-2.57-5.73-5.73V81.83c0-3.16,2.57-5.73,5.73-5.73Z" fill="#f0efef"/>
    <path d="M732.98,77.11c2.61,0,4.73,2.12,4.73,4.73v356.02c0,2.61-2.12,4.73-4.73,4.73h-464.7c-2.61,0-4.73-2.12-4.73-4.73V81.83c0-2.61,2.12-4.73,4.73-4.73h464.7M732.98,75.11h-464.7c-3.71,0-6.73,3.02-6.73,6.73v356.02c0,3.71,3.02,6.73,6.73,6.73h464.7c3.71,0,6.73-3.02,6.73-6.73V81.83c0-3.71-3.02-6.73-6.73-6.73h0Z" fill="#cfcfce"/>
  </g>
  <g>
    <path d="M289.87,99.19h421.52c2.46,0,4.46,2,4.46,4.46v312.15c0,2.46-2,4.47-4.47,4.47h-421.52c-2.46,0-4.47-2-4.47-4.47V103.65c0-2.46,2-4.47,4.47-4.47Z" fill="#262626"/>
    <path d="M711.39,99.43c2.33,0,4.22,1.89,4.22,4.22v312.15c0,2.33-1.89,4.22-4.22,4.22h-421.52c-2.33,0-4.22-1.89-4.22-4.22V103.65c0-2.33,1.89-4.22,4.22-4.22h421.52M711.39,98.93h-421.52c-2.6,0-4.72,2.12-4.72,4.72v312.15c0,2.6,2.12,4.72,4.72,4.72h421.52c2.6,0,4.72-2.12,4.72-4.72V103.65c0-2.6-2.12-4.72-4.72-4.72h0Z" fill="#101010"/>
  </g>
  <g>
    <path d="M268.28,554.79h464.7c3.16,0,5.73,2.57,5.73,5.73v356.02c0,3.16-2.57,5.73-5.73,5.73h-464.7c-3.16,0-5.73-2.57-5.73-5.73v-356.02c0-3.16,2.57-5.73,5.73-5.73Z" fill="#f0efef"/>
    <path d="M732.98,555.79c2.61,0,4.73,2.12,4.73,4.73v356.02c0,2.61-2.12,4.73-4.73,4.73h-464.7c-2.61,0-4.73-2.12-4.73-4.73v-356.02c0-2.61,2.12-4.73,4.73-4.73h464.7M732.98,553.79h-464.7c-3.71,0-6.73,3.02-6.73,6.73v356.02c0,3.71,3.02,6.73,6.73,6.73h464.7c3.71,0,6.73-3.02,6.73-6.73v-356.02c0-3.71-3.02-6.73-6.73-6.73h0Z" fill="#cfcfce"/>
  </g>
  <g>
    <path d="M289.87,577.87h421.52c2.46,0,4.47,2,4.47,4.47v312.15c0,2.46-2,4.47-4.47,4.47h-421.52c-2.46,0-4.47-2-4.47-4.47v-312.15c0-2.46,2-4.47,4.47-4.47Z" fill="#262626"/>
    <path d="M711.39,578.12c2.33,0,4.22,1.89,4.22,4.22v312.15c0,2.33-1.89,4.22-4.22,4.22h-421.52c-2.33,0-4.22-1.89-4.22-4.22v-312.15c0-2.33,1.89-4.22,4.22-4.22h421.52M711.39,577.62h-421.52c-2.6,0-4.72,2.12-4.72,4.72v312.15c0,2.6,2.12,4.72,4.72,4.72h421.52c2.6,0,4.72-2.12,4.72-4.72v-312.15c0-2.6-2.12-4.72-4.72-4.72h0Z" fill="#101010"/>
  </g>
  <circle cx="814.64" cy="251.26" r="4.86"/>
  <circle cx="849.42" cy="251.26" r="4.86"/>
  <circle cx="884.21" cy="251.26" r="4.86"/>
  <circle cx="814.64" cy="285.89" r="4.86"/>
  <circle cx="849.42" cy="285.89" r="4.86"/>
  <circle cx="884.21" cy="285.89" r="4.86"/>
  <circle cx="116.62" cy="251.26" r="4.86"/>
  <circle cx="151.4" cy="251.26" r="4.86"/>
  <circle cx="186.19" cy="251.26" r="4.86"/>
  <rect x="137.3" y="474.34" width="751.76" height="58.02" fill="#707071"/>
  <circle cx="116.62" cy="285.89" r="4.86"/>
  <circle cx="151.4" cy="285.89" r="4.86"/>
  <rect x="151.64" y="474.34" width="696.71" height="58.02" fill="#e8e8e8"/>
  <path d="M852.06,474.34h75.8c16.01,0,29.01,13,29.01,29.01h0c0,16.01-13,29.01-29.01,29.01h-75.8v-58.02h0Z" fill="#dcdbdb"/>
  <path d="M43.13,474.34h75.8c16.01,0,29.01,13,29.01,29.01h0c0,16.01-13,29.01-29.01,29.01H43.13v-58.02h0Z" transform="translate(191.06 1006.7) rotate(-180)" fill="#dcdbdb"/>
  <circle cx="186.19" cy="285.89" r="4.86"/>
  <rect x="496.49" y="488.18" width="8.66" height="25.86" rx="4.33" ry="4.33"/>
  <rect x="892.26" y="481.06" width="7.58" height="43.06" rx="3.79" ry="3.79" fill="#5b5d5e"/>
  <rect x="908.66" y="481.06" width="7.58" height="43.06" rx="3.79" ry="3.79" fill="#73bf44"/>
  <g>
    <path d="M785.32,862.79c-7.23,0-13.12-5.88-13.12-13.12s5.88-13.12,13.12-13.12,13.12,5.88,13.12,13.12-5.88,13.12-13.12,13.12Z" fill="#f0efef"/>
    <path d="M785.32,837.26c6.86,0,12.42,5.56,12.42,12.42s-5.56,12.42-12.42,12.42-12.42-5.56-12.42-12.42,5.56-12.42,12.42-12.42M785.32,835.86c-7.62,0-13.82,6.2-13.82,13.82s6.2,13.82,13.82,13.82,13.82-6.2,13.82-13.82-6.2-13.82-13.82-13.82h0Z" fill="#565656"/>
  </g>
  <g>
    <path d="M785.32,915.88c-7.23,0-13.12-5.88-13.12-13.12s5.88-13.12,13.12-13.12,13.12,5.88,13.12,13.12-5.88,13.12-13.12,13.12Z" fill="#f0efef"/>
    <path d="M785.32,890.35c6.86,0,12.42,5.56,12.42,12.42s-5.56,12.42-12.42,12.42-12.42-5.56-12.42-12.42,5.56-12.42,12.42-12.42M785.32,888.95c-7.62,0-13.82,6.2-13.82,13.82s6.2,13.82,13.82,13.82,13.82-6.2,13.82-13.82-6.2-13.82-13.82-13.82h0Z" fill="#565656"/>
  </g>
  <g>
    <path d="M129.86,761.99c-2.83,0-5.12-2.3-5.12-5.12v-35.96h-35.97c-2.82,0-5.12-2.3-5.12-5.12v-32.66c0-2.83,2.3-5.12,5.12-5.12h35.97v-35.97c0-2.83,2.3-5.12,5.12-5.12h32.66c2.83,0,5.12,2.3,5.12,5.12v35.97h35.96c2.83,0,5.12,2.3,5.12,5.12v32.66c0,2.83-2.3,5.12-5.12,5.12h-35.96v35.96c0,2.83-2.3,5.12-5.12,5.12h-32.66Z" fill="#f0efef"/>
    <path d="M162.52,638.16c2.14,0,3.87,1.73,3.87,3.87v37.22h37.22c2.14,0,3.87,1.73,3.87,3.87v32.66c0,2.14-1.73,3.87-3.87,3.87h-37.22v37.22c0,2.14-1.73,3.87-3.87,3.87h-32.66c-2.14,0-3.87-1.73-3.87-3.87v-37.22h-37.22c-2.14,0-3.87-1.73-3.87-3.87v-32.66c0-2.14,1.73-3.87,3.87-3.87h37.22v-37.22c0-2.14,1.73-3.87,3.87-3.87h32.66M162.52,635.66h-32.66c-3.51,0-6.37,2.86-6.37,6.37v34.72h-34.72c-3.51,0-6.37,2.86-6.37,6.37v32.66c0,3.51,2.86,6.37,6.37,6.37h34.72v34.72c0,3.51,2.86,6.37,6.37,6.37h32.66c3.51,0,6.37-2.86,6.37-6.37v-34.72h34.72c3.51,0,6.37-2.86,6.37-6.37v-32.66c0-3.51-2.86-6.37-6.37-6.37h-34.72v-34.72c0-3.51-2.86-6.37-6.37-6.37h0Z" fill="#727373"/>
  </g>
  <rect x="155.15" y="434.68" width="25.18" height="24.04" rx="5.3" ry="5.3" fill="#e8e8e8"/>
  <rect x="819.5" y="434.68" width="25.18" height="24.04" rx="5.3" ry="5.3" fill="#e8e8e8"/>
  <rect x="819.5" y="68.6" width="25.18" height="24.04" rx="5.3" ry="5.3" fill="#e8e8e8"/>
  <rect x="156.26" y="68.6" width="25.18" height="24.04" rx="5.3" ry="5.3" fill="#e8e8e8"/>
  <g>
    <g>
      <path d="M849.79,652.53c-14.46,0-26.22-11.76-26.22-26.22s11.76-26.22,26.22-26.22,26.22,11.76,26.22,26.22-11.76,26.22-26.22,26.22Z" fill="#f0efef"/>
      <path d="M849.78,600.33c14.35,0,25.97,11.63,25.97,25.97s-11.63,25.97-25.97,25.97-25.97-11.63-25.97-25.97,11.63-25.97,25.97-25.97M849.78,599.83c-14.6,0-26.47,11.88-26.47,26.47s11.88,26.47,26.47,26.47,26.47-11.88,26.47-26.47-11.88-26.47-26.47-26.47h0Z" fill="#565656"/>
    </g>
    <g>
      <path d="M849.79,757.34c-14.46,0-26.22-11.76-26.22-26.22s11.76-26.22,26.22-26.22,26.22,11.76,26.22,26.22-11.76,26.22-26.22,26.22Z" fill="#f0efef"/>
      <path d="M849.78,705.14c14.35,0,25.97,11.63,25.97,25.97s-11.63,25.97-25.97,25.97-25.97-11.63-25.97-25.97,11.63-25.97,25.97-25.97M849.78,704.64c-14.6,0-26.47,11.88-26.47,26.47s11.88,26.47,26.47,26.47,26.47-11.88,26.47-26.47-11.88-26.47-26.47-26.47h0Z" fill="#565656"/>
    </g>
    <g>
      <path d="M797.38,704.94c-14.46,0-26.22-11.76-26.22-26.23s11.76-26.22,26.22-26.22,26.22,11.76,26.22,26.22-11.76,26.23-26.22,26.23Z" fill="#f0efef"/>
      <path d="M797.38,652.74c14.35,0,25.97,11.63,25.97,25.97s-11.63,25.97-25.97,25.97-25.97-11.63-25.97-25.97,11.63-25.97,25.97-25.97M797.38,652.24c-14.6,0-26.47,11.88-26.47,26.47s11.88,26.47,26.47,26.47,26.47-11.88,26.47-26.47-11.88-26.47-26.47-26.47h0Z" fill="#565656"/>
    </g>
    <g>
      <path d="M902.19,704.94c-14.46,0-26.22-11.76-26.22-26.23s11.76-26.22,26.22-26.22,26.23,11.76,26.23,26.22-11.76,26.23-26.23,26.23Z" fill="#f0efef"/>
      <path d="M902.19,652.74c14.35,0,25.97,11.63,25.97,25.97s-11.63,25.97-25.97,25.97-25.97-11.63-25.97-25.97,11.63-25.97,25.97-25.97M902.19,652.24c-14.6,0-26.47,11.88-26.47,26.47s11.88,26.47,26.47,26.47,26.47-11.88,26.47-26.47-11.88-26.47-26.47-26.47h0Z" fill="#565656"/>
    </g>
  </g>
  <rect x="144.3" y="650.54" width="3.34" height="23.39" fill="#bababa"/>
  <rect x="144.3" y="724.97" width="3.34" height="23.39" fill="#bababa"/>
  <rect x="97.06" y="697.78" width="23.39" height="3.34" fill="#bababa"/>
  <rect x="171.49" y="697.78" width="23.39" height="3.34" fill="#bababa"/>
</svg>