<?xml version="1.0" encoding="UTF-8"?>
<svg id="Joycons" xmlns="http://www.w3.org/2000/svg" viewBox="0 0 1000 1000">
  <g>
    <g>
      <path d="M270.3,33.5v-7.12c0-2.01-1.62-3.63-3.62-3.61-11.72.1-48.67.39-62.93.39-.22,0-.44,0-.66.02-52.38,3.23-84.57,20.39-110.02,40.01-31.27,24.11-60.43,59.67-67.67,81.69-.77,2.35.97,4.77,3.45,4.77,10.4,0,12.53,0,11.65,0l227.81-112.92c1.23-.61,2.01-1.86,2.01-3.23Z" fill="#1c2129"/>
      <path d="M21.81,32.59h107.59c111.33,0,201.72,90.39,201.72,201.72v534.05c0,115.28-93.59,208.87-208.87,208.87H21.81c-5.12,0-9.27-4.15-9.27-9.27V41.86c0-5.12,4.15-9.27,9.27-9.27Z" transform="translate(343.66 1009.82) rotate(-180)" fill="#28aecb"/>
      <rect x="205.32" y="683.22" width="58.61" height="58.61" rx="12.37" ry="12.37" fill="#1c2129"/>
      <circle cx="183.4" cy="602.02" r="35.83" fill="#1c2129"/>
      <circle cx="183.4" cy="463.37" r="35.83" fill="#1c2129"/>
      <circle cx="109.79" cy="535.03" r="35.83" fill="#1c2129"/>
      <circle cx="252.91" cy="535.03" r="35.83" fill="#1c2129"/>
      <rect x="251.86" y="119.2" width="50.63" height="15.58" fill="#1c2129"/>
      <circle cx="181.25" cy="273.15" r="71.47" fill="#1c2129"/>
      <g>
        <circle cx="181.25" cy="272.53" r="52.63" stroke-width="2.56px" fill="none" stroke="#262c34" stroke-miterlimit="10"/>
        <line x1="181.25" y1="219.9" x2="181.25" y2="209.6" stroke-width="2.56px" fill="none" stroke="#262c34" stroke-miterlimit="10"/>
        <line x1="181.25" y1="336.7" x2="181.25" y2="326.4" stroke-width="2.56px" fill="none" stroke="#262c34" stroke-miterlimit="10"/>
        <line x1="128.63" y1="272.53" x2="118.33" y2="272.53" stroke-width="2.56px" fill="none" stroke="#262c34" stroke-miterlimit="10"/>
        <line x1="244.18" y1="272.53" x2="233.88" y2="272.53" stroke-width="2.56px" fill="none" stroke="#262c34" stroke-miterlimit="10"/>
      </g>
    </g>
    <rect x="422.68" y="217.83" width="43.89" height="132.79" rx="7.38" ry="7.38" transform="translate(889.25 568.44) rotate(-180)" fill="#1c2129"/>
    <rect x="422.68" y="591.81" width="43.89" height="132.79" rx="7.26" ry="7.26" transform="translate(889.25 1316.4) rotate(-180)" fill="#1c2129"/>
    <path d="M356.73,937.61c-1.59-1.97-4.13-8.25-13.22-9.75-11.25-2.06-9.32-3.86-11.63-10.03-.25-.46-.5-.8-.76-1.07V32.59h0c68.11,0,123.32,55.21,123.32,123.32v61.92c-14.06,54.09-12.14,99.75,0,132.79v241.19c-12.38,43.82-11.84,87.61,0,132.79v116.24c0,56.33-40.2,104.6-92.88,116.82-1.61.37-3.13-.9-3-2.55.4-5.14.15-14.05-1.84-17.49Z" fill="#31363e"/>
    <rect x="367.47" y="118.55" width="50.63" height="15.58" transform="translate(785.57 252.68) rotate(-180)" fill="#1c2129"/>
  </g>
  <path d="M729.7,33.5v-7.12c0-2.01,1.62-3.63,3.62-3.61,11.72.1,48.67.39,62.93.39.22,0,.44,0,.66.02,52.38,3.23,84.57,20.39,110.02,40.01,31.27,24.11,60.43,59.67,67.67,81.69.77,2.35-.97,4.77-3.45,4.77-10.4,0-12.53,0-11.65,0l-227.81-112.92c-1.23-.61-2.01-1.86-2.01-3.23Z" fill="#1c2129"/>
  <path d="M678.15,32.59h100.44c115.28,0,208.87,93.59,208.87,208.87v534.05c0,111.33-90.39,201.72-201.72,201.72h-107.59c-5.12,0-9.27-4.15-9.27-9.27V41.86c0-5.12,4.15-9.27,9.27-9.27Z" fill="#e15a56"/>
  <rect x="533.44" y="217.83" width="43.89" height="132.79" rx="7.38" ry="7.38" fill="#1c2129"/>
  <rect x="533.44" y="591.81" width="43.89" height="132.79" rx="7.26" ry="7.26" fill="#1c2129"/>
  <circle cx="819.36" cy="340.14" r="35.83" fill="#1c2129"/>
  <g>
    <path d="M764.51,745.68c-18.28,0-33.15-14.87-33.15-33.15s14.87-33.15,33.15-33.15,33.15,14.87,33.15,33.15-14.87,33.15-33.15,33.15Z" fill="#1c2129"/>
    <path d="M764.51,683.22c16.19,0,29.31,13.12,29.31,29.31s-13.12,29.31-29.31,29.31-29.31-13.12-29.31-29.31,13.12-29.31,29.31-29.31M764.51,675.53c-20.4,0-37,16.6-37,37s16.6,37,37,37,37-16.6,37-37-16.6-37-37-37h0Z" fill="#969792"/>
  </g>
  <circle cx="819.36" cy="201.49" r="35.83" fill="#1c2129"/>
  <circle cx="745.75" cy="273.15" r="35.83" fill="#1c2129"/>
  <circle cx="888.88" cy="273.15" r="35.83" fill="#1c2129"/>
  <rect x="696.6" y="118.55" width="50.63" height="15.58" fill="#1c2129"/>
  <rect x="696.6" y="118.55" width="50.63" height="15.58" transform="translate(595.58 848.25) rotate(-90)" fill="#1c2129"/>
  <circle cx="817.14" cy="535.03" r="71.47" fill="#1c2129"/>
  <g>
    <circle cx="817.14" cy="534.41" r="52.63" fill="none" stroke="#262c34" stroke-miterlimit="10" stroke-width="2.56px"/>
    <line x1="817.14" y1="481.79" x2="817.14" y2="471.49" fill="none" stroke="#262c34" stroke-miterlimit="10" stroke-width="2.56px"/>
    <line x1="817.14" y1="598.58" x2="817.14" y2="588.28" fill="none" stroke="#262c34" stroke-miterlimit="10" stroke-width="2.56px"/>
    <line x1="764.51" y1="534.41" x2="754.21" y2="534.41" fill="none" stroke="#262c34" stroke-miterlimit="10" stroke-width="2.56px"/>
    <line x1="880.07" y1="534.41" x2="869.76" y2="534.41" fill="none" stroke="#262c34" stroke-miterlimit="10" stroke-width="2.56px"/>
  </g>
  <path d="M643.27,937.61c1.59-1.97,4.13-8.25,13.22-9.75,11.25-2.06,9.32-3.86,11.63-10.03.25-.46.5-.8.76-1.07V32.59h0c-68.11,0-123.32,55.21-123.32,123.32v61.92c14.06,54.09,12.14,99.75,0,132.79v241.19c12.38,43.82,11.84,87.61,0,132.79v116.24c0,56.33,40.2,104.6,92.88,116.82,1.61.37,3.13-.9,3-2.55-.4-5.14-.15-14.05,1.84-17.49Z" fill="#31363e"/>
  <rect x="581.91" y="118.55" width="50.63" height="15.58" fill="#1c2129"/>
  <rect x="581.91" y="118.55" width="50.63" height="15.58" transform="translate(480.88 733.56) rotate(-90)" fill="#1c2129"/>
  <path d="M640.2,856.35c-4.54-.26-9.07-.68-13.58-1.13-1.59.16-3.18.28-4.76.35-5.77.26-11.82-.64-17.74-2.38-1.14-.07-2.29-.14-3.43-.18-16.16-.64-32.47-1.69-48.33-5.03-2.19-.46-4.36-1.02-6.49-1.66,4.3,64.21,57.74,114.97,123.04,114.97h0v-104.69c-9.55.39-19.12.31-28.68-.25Z" fill="#31363e"/>
  <path d="M359.8,856.35c4.54-.26,9.07-.68,13.58-1.13,1.59.16,3.18.28,4.76.35,5.77.26,11.82-.64,17.74-2.38,1.14-.07,2.29-.14,3.43-.18,16.16-.64,32.47-1.69,48.33-5.03,2.19-.46,4.36-1.02,6.49-1.66-4.3,64.21-57.74,114.97-123.04,114.97h0v-104.69c9.55.39,19.12.31,28.68-.25Z" fill="#31363e"/>
</svg>