<?xml version="1.0" encoding="UTF-8"?>
<svg id="Layer_2" data-name="Layer 2" xmlns="http://www.w3.org/2000/svg" viewBox="0 0 1000 1000">
  <rect x="23.55" y="259.83" width="952.84" height="292.51" rx="112.34" ry="112.34" fill="#d2d2d1"/>
  <rect x="20" y="255.75" width="960" height="503.24" rx="147.01" ry="147.01" fill="#bcbcbc"/>
  <path d="M167.01,255.75h665.97c81.14,0,147.01,65.87,147.01,147.01v202.8c0,81.14-65.87,147.01-147.01,147.01H167.01c-81.14,0-147.01-65.87-147.01-147.01v-202.8c0-81.14,65.87-147.01,147.01-147.01Z" fill="#f3f3f4"/>
  <rect x="237.77" y="359.75" width="520" height="294.82" fill="#303030"/>
  <rect x="225.15" y="347.74" width="545.24" height="318.84" rx="14.31" ry="14.31" fill="none" stroke-miterlimit="10" stroke="#6a6a6a" stroke-width="1.06px"/>
  <g>
    <path d="M134.5,525.35c-1.58,0-2.87-1.29-2.87-2.87v-21.99c0-2.25-1.83-4.08-4.08-4.08h-21.99c-1.58,0-2.87-1.29-2.87-2.87v-22.75c0-1.58,1.29-2.87,2.87-2.87h21.99c2.25,0,4.08-1.83,4.08-4.08v-21.99c0-1.58,1.29-2.87,2.87-2.87h22.75c1.58,0,2.87,1.29,2.87,2.87v21.99c0,2.25,1.83,4.08,4.08,4.08h21.99c1.58,0,2.87,1.29,2.87,2.87v22.75c0,1.58-1.29,2.87-2.87,2.87h-21.99c-2.25,0-4.08,1.83-4.08,4.08v21.99c0,1.58-1.29,2.87-2.87,2.87h-22.75Z" fill="#f3f3f5"/>
    <path d="M157.25,439.29c1.43,0,2.58,1.16,2.58,2.58v21.99c0,2.41,1.95,4.36,4.36,4.36h21.99c1.43,0,2.58,1.16,2.58,2.58v22.75c0,1.43-1.16,2.58-2.58,2.58h-21.99c-2.41,0-4.36,1.95-4.36,4.36v21.99c0,1.43-1.16,2.58-2.58,2.58h-22.75c-1.43,0-2.58-1.16-2.58-2.58v-21.99c0-2.41-1.95-4.36-4.36-4.36h-21.99c-1.43,0-2.58-1.16-2.58-2.58v-22.75c0-1.43,1.16-2.58,2.58-2.58h21.99c2.41,0,4.36-1.95,4.36-4.36v-21.99c0-1.43,1.16-2.58,2.58-2.58h22.75M157.25,438.73h-22.75c-1.74,0-3.15,1.41-3.15,3.15v21.99c0,2.09-1.7,3.79-3.79,3.79h-21.99c-1.74,0-3.15,1.41-3.15,3.15v22.75c0,1.74,1.41,3.15,3.15,3.15h21.99c2.09,0,3.79,1.7,3.79,3.79v21.99c0,1.74,1.41,3.15,3.15,3.15h22.75c1.74,0,3.15-1.41,3.15-3.15v-21.99c0-2.09,1.7-3.79,3.79-3.79h21.99c1.74,0,3.15-1.41,3.15-3.15v-22.75c0-1.74-1.41-3.15-3.15-3.15h-21.99c-2.09,0-3.79-1.7-3.79-3.79v-21.99c0-1.74-1.41-3.15-3.15-3.15h0Z" fill="#6b6b6b"/>
  </g>
  <g>
    <rect x="144.76" y="447.9" width="2.54" height="17.78" rx="1.27" ry="1.27" fill="#cfcfce"/>
    <rect x="144.76" y="499.82" width="2.54" height="17.78" rx="1.27" ry="1.27" fill="#cfcfce"/>
    <rect x="171.72" y="473.65" width="2.54" height="17.78" rx="1.27" ry="1.27" transform="translate(-309.55 655.54) rotate(-90)" fill="#cfcfce"/>
    <rect x="117.9" y="473.65" width="2.54" height="17.78" rx="1.27" ry="1.27" transform="translate(-363.37 601.72) rotate(-90)" fill="#cfcfce"/>
  </g>
  <rect x="360.95" y="278.74" width="274.22" height="34.95" rx="17.47" ry="17.47" fill="#3d3d3d"/>
  <circle cx="497.75" cy="297.41" r="13.6" fill="#121212"/>
  <circle cx="497.75" cy="297.41" r="10.08" fill="#b1b0b7"/>
  <circle cx="497.75" cy="297.41" r="8.12" fill="#d8e0ea"/>
  <circle cx="497.75" cy="297.41" r="1.11" fill="#1e1e1e"/>
  <rect x="172.36" y="706.21" width="18.65" height="7.79" rx="3.9" ry="3.9" fill="#121212"/>
  <rect x="807.36" y="706.21" width="18.65" height="7.79" rx="3.9" ry="3.9" fill="#121212"/>
  <g>
    <path d="M498.33,730.61c-11.53,0-20.92-9.38-20.92-20.92s9.38-20.92,20.92-20.92,20.92,9.38,20.92,20.92-9.38,20.92-20.92,20.92Z" fill="#15b4e5"/>
    <path d="M498.33,689.13c11.36,0,20.56,9.21,20.56,20.56s-9.21,20.56-20.56,20.56-20.56-9.21-20.56-20.56,9.21-20.56,20.56-20.56M498.33,688.42c-11.73,0-21.27,9.54-21.27,21.27s9.54,21.27,21.27,21.27,21.27-9.54,21.27-21.27-9.54-21.27-21.27-21.27h0Z" fill="#8fd7f3"/>
  </g>
  <g>
    <path d="M858.63,461.74c-10.05,0-18.23-8.18-18.23-18.23s8.18-18.23,18.23-18.23,18.23,8.18,18.23,18.23-8.18,18.23-18.23,18.23Z" fill="#f3f3f5"/>
    <path d="M858.63,425.63c9.87,0,17.88,8.01,17.88,17.88s-8.01,17.88-17.88,17.88-17.88-8.01-17.88-17.88,8.01-17.88,17.88-17.88M858.63,424.92c-10.25,0-18.59,8.34-18.59,18.59s8.34,18.59,18.59,18.59,18.59-8.34,18.59-18.59-8.34-18.59-18.59-18.59h0Z" fill="#6b6b6b"/>
  </g>
  <g>
    <path d="M858.63,537.6c-10.05,0-18.23-8.18-18.23-18.23s8.18-18.23,18.23-18.23,18.23,8.18,18.23,18.23-8.18,18.23-18.23,18.23Z" fill="#f3f3f5"/>
    <path d="M858.63,501.49c9.87,0,17.88,8.01,17.88,17.88s-8.01,17.88-17.88,17.88-17.88-8.01-17.88-17.88,8.01-17.88,17.88-17.88M858.63,500.78c-10.25,0-18.59,8.34-18.59,18.59s8.34,18.59,18.59,18.59,18.59-8.34,18.59-18.59-8.34-18.59-18.59-18.59h0Z" fill="#6b6b6b"/>
  </g>
  <g>
    <path d="M695.29,697.78h10.87c3.8,0,6.89,3.09,6.89,6.89v10.87c0,3.8-3.09,6.89-6.89,6.89h-10.87c-3.8,0-6.88-3.08-6.88-6.88v-10.87c0-3.8,3.09-6.89,6.89-6.89Z" fill="#f3f3f5"/>
    <path d="M706.17,698.13c3.61,0,6.53,2.92,6.53,6.53v10.87c0,3.61-2.92,6.53-6.53,6.53h-10.87c-3.61,0-6.53-2.92-6.53-6.53v-10.87c0-3.61,2.92-6.53,6.53-6.53h10.87M706.17,697.42h-10.87c-3.99,0-7.24,3.25-7.24,7.24v10.87c0,3.99,3.25,7.24,7.24,7.24h10.87c3.99,0,7.24-3.25,7.24-7.24v-10.87c0-3.99-3.25-7.24-7.24-7.24h0Z" fill="#6b6b6b"/>
  </g>
  <g>
    <path d="M816.29,591.63c-6.82,0-12.37-5.55-12.37-12.37s5.55-12.37,12.37-12.37,12.37,5.55,12.37,12.37-5.55,12.37-12.37,12.37Z" fill="#f3f3f5"/>
    <path d="M816.29,567.25c6.63,0,12.01,5.38,12.01,12.01s-5.38,12.01-12.01,12.01-12.01-5.38-12.01-12.01,5.38-12.01,12.01-12.01M816.29,566.54c-7.01,0-12.72,5.71-12.72,12.72s5.71,12.72,12.72,12.72,12.72-5.71,12.72-12.72-5.71-12.72-12.72-12.72h0Z" fill="#6b6b6b"/>
  </g>
  <g>
    <path d="M816.29,641.26c-6.82,0-12.37-5.55-12.37-12.37s5.55-12.37,12.37-12.37,12.37,5.55,12.37,12.37-5.55,12.37-12.37,12.37Z" fill="#f3f3f5"/>
    <path d="M816.29,616.89c6.63,0,12.01,5.38,12.01,12.01s-5.38,12.01-12.01,12.01-12.01-5.38-12.01-12.01,5.38-12.01,12.01-12.01M816.29,616.18c-7.01,0-12.72,5.71-12.72,12.72s5.71,12.72,12.72,12.72,12.72-5.71,12.72-12.72-5.71-12.72-12.72-12.72h0Z" fill="#6b6b6b"/>
  </g>
  <g>
    <path d="M749.87,722.08c-6.34,0-11.5-5.16-11.5-11.5s5.16-11.5,11.5-11.5,11.5,5.16,11.5,11.5-5.16,11.5-11.5,11.5Z" fill="#f3f3f5"/>
    <path d="M749.87,699.43c6.16,0,11.15,4.99,11.15,11.15s-4.99,11.15-11.15,11.15-11.15-4.99-11.15-11.15,4.99-11.15,11.15-11.15M749.87,698.72c-6.54,0-11.86,5.32-11.86,11.86s5.32,11.86,11.86,11.86,11.86-5.32,11.86-11.86-5.32-11.86-11.86-11.86h0Z" fill="#6b6b6b"/>
  </g>
  <circle cx="651.75" cy="709.58" r="3" fill="#121212"/>
  <circle cx="498.33" cy="709.69" r="16.03" fill="#f3f3f5"/>
  <g>
    <path d="M896.9,499.33c-10.05,0-18.23-8.18-18.23-18.23s8.18-18.23,18.23-18.23,18.23,8.18,18.23,18.23-8.18,18.23-18.23,18.23Z" fill="#f3f3f5"/>
    <path d="M896.9,463.22c9.87,0,17.88,8.01,17.88,17.88s-8.01,17.88-17.88,17.88-17.88-8.01-17.88-17.88,8.01-17.88,17.88-17.88M896.9,462.51c-10.25,0-18.59,8.34-18.59,18.59s8.34,18.59,18.59,18.59,18.59-8.34,18.59-18.59-8.34-18.59-18.59-18.59h0Z" fill="#6b6b6b"/>
  </g>
  <g>
    <path d="M820.13,499.33c-10.05,0-18.23-8.18-18.23-18.23s8.18-18.23,18.23-18.23,18.23,8.18,18.23,18.23-8.18,18.23-18.23,18.23Z" fill="#f3f3f5"/>
    <path d="M820.13,463.22c9.87,0,17.88,8.01,17.88,17.88s-8.01,17.88-17.88,17.88-17.88-8.01-17.88-17.88,8.01-17.88,17.88-17.88M820.13,462.51c-10.25,0-18.59,8.34-18.59,18.59s8.34,18.59,18.59,18.59,18.59-8.34,18.59-18.59-8.34-18.59-18.59-18.59h0Z" fill="#6b6b6b"/>
  </g>
  <circle cx="441.77" cy="709.86" r="1.82" fill="#121212"/>
  <circle cx="895.47" cy="371.9" r="46.75" fill="#ddd"/>
  <g>
    <path d="M895.47,405.39c-18.47,0-33.5-15.03-33.5-33.5s15.03-33.5,33.5-33.5,33.5,15.03,33.5,33.5-15.03,33.5-33.5,33.5Z" fill="#f3f3f5"/>
    <path d="M895.47,339.4c17.92,0,32.5,14.58,32.5,32.5s-14.58,32.5-32.5,32.5-32.5-14.58-32.5-32.5,14.58-32.5,32.5-32.5M895.47,337.4c-19.05,0-34.5,15.44-34.5,34.5s15.44,34.5,34.5,34.5,34.5-15.44,34.5-34.5-15.44-34.5-34.5-34.5h0Z" fill="#3d3d3d"/>
  </g>
  <circle cx="895.47" cy="371.9" r="23.74" stroke="#e5e5e5" stroke-width="2px" fill="none" stroke-miterlimit="10"/>
  <circle cx="102.98" cy="371.9" r="46.75" fill="#ddd"/>
  <g>
    <path d="M102.98,405.39c-18.47,0-33.5-15.03-33.5-33.5s15.03-33.5,33.5-33.5,33.5,15.03,33.5,33.5-15.03,33.5-33.5,33.5Z" fill="#f3f3f5"/>
    <path d="M102.98,339.4c17.92,0,32.5,14.58,32.5,32.5s-14.58,32.5-32.5,32.5-32.5-14.58-32.5-32.5,14.58-32.5,32.5-32.5M102.98,337.4c-19.05,0-34.5,15.44-34.5,34.5s15.44,34.5,34.5,34.5,34.5-15.44,34.5-34.5-15.44-34.5-34.5-34.5h0Z" fill="#3d3d3d"/>
  </g>
  <circle cx="102.98" cy="371.9" r="23.74" stroke="#e5e5e5" stroke-width="2px" fill="none" stroke-miterlimit="10"/>
</svg>